G04 #@! TF.FileFunction,Legend,Top*
%FSLAX46Y46*%
G04 Gerber Fmt 4.6, Leading zero omitted, Abs format (unit mm)*
G04 Created by KiCad (PCBNEW 4.0.5) date 08/11/17 18:39:36*
%MOMM*%
%LPD*%
G01*
G04 APERTURE LIST*
%ADD10C,0.100000*%
%ADD11C,0.150000*%
%ADD12C,0.120000*%
G04 APERTURE END LIST*
D10*
D11*
X161481000Y-77558572D02*
X161452429Y-77615715D01*
X161452429Y-77701429D01*
X161481000Y-77787144D01*
X161538143Y-77844286D01*
X161595286Y-77872858D01*
X161709571Y-77901429D01*
X161795286Y-77901429D01*
X161909571Y-77872858D01*
X161966714Y-77844286D01*
X162023857Y-77787144D01*
X162052429Y-77701429D01*
X162052429Y-77644286D01*
X162023857Y-77558572D01*
X161995286Y-77530001D01*
X161795286Y-77530001D01*
X161795286Y-77644286D01*
X162023857Y-77044286D02*
X162052429Y-77101429D01*
X162052429Y-77215715D01*
X162023857Y-77272858D01*
X161966714Y-77301429D01*
X161738143Y-77301429D01*
X161681000Y-77272858D01*
X161652429Y-77215715D01*
X161652429Y-77101429D01*
X161681000Y-77044286D01*
X161738143Y-77015715D01*
X161795286Y-77015715D01*
X161852429Y-77301429D01*
X162052429Y-76672858D02*
X162023857Y-76730000D01*
X161995286Y-76758572D01*
X161938143Y-76787143D01*
X161766714Y-76787143D01*
X161709571Y-76758572D01*
X161681000Y-76730000D01*
X161652429Y-76672858D01*
X161652429Y-76587143D01*
X161681000Y-76530000D01*
X161709571Y-76501429D01*
X161766714Y-76472858D01*
X161938143Y-76472858D01*
X161995286Y-76501429D01*
X162023857Y-76530000D01*
X162052429Y-76587143D01*
X162052429Y-76672858D01*
X162052429Y-76215715D02*
X161652429Y-76215715D01*
X161766714Y-76215715D02*
X161709571Y-76187143D01*
X161681000Y-76158572D01*
X161652429Y-76101429D01*
X161652429Y-76044286D01*
X161652429Y-75587143D02*
X162138143Y-75587143D01*
X162195286Y-75615714D01*
X162223857Y-75644286D01*
X162252429Y-75701429D01*
X162252429Y-75787143D01*
X162223857Y-75844286D01*
X162023857Y-75587143D02*
X162052429Y-75644286D01*
X162052429Y-75758572D01*
X162023857Y-75815714D01*
X161995286Y-75844286D01*
X161938143Y-75872857D01*
X161766714Y-75872857D01*
X161709571Y-75844286D01*
X161681000Y-75815714D01*
X161652429Y-75758572D01*
X161652429Y-75644286D01*
X161681000Y-75587143D01*
X162023857Y-75072857D02*
X162052429Y-75130000D01*
X162052429Y-75244286D01*
X162023857Y-75301429D01*
X161966714Y-75330000D01*
X161738143Y-75330000D01*
X161681000Y-75301429D01*
X161652429Y-75244286D01*
X161652429Y-75130000D01*
X161681000Y-75072857D01*
X161738143Y-75044286D01*
X161795286Y-75044286D01*
X161852429Y-75330000D01*
X163102429Y-79015714D02*
X162502429Y-79015714D01*
X163102429Y-78672857D02*
X162759571Y-78930000D01*
X162502429Y-78672857D02*
X162845286Y-79015714D01*
X162702429Y-78415714D02*
X163102429Y-78415714D01*
X162759571Y-78415714D02*
X162731000Y-78387142D01*
X162702429Y-78330000D01*
X162702429Y-78244285D01*
X162731000Y-78187142D01*
X162788143Y-78158571D01*
X163102429Y-78158571D01*
X163102429Y-77787143D02*
X163073857Y-77844285D01*
X163045286Y-77872857D01*
X162988143Y-77901428D01*
X162816714Y-77901428D01*
X162759571Y-77872857D01*
X162731000Y-77844285D01*
X162702429Y-77787143D01*
X162702429Y-77701428D01*
X162731000Y-77644285D01*
X162759571Y-77615714D01*
X162816714Y-77587143D01*
X162988143Y-77587143D01*
X163045286Y-77615714D01*
X163073857Y-77644285D01*
X163102429Y-77701428D01*
X163102429Y-77787143D01*
X162702429Y-77387143D02*
X163102429Y-77272857D01*
X162816714Y-77158571D01*
X163102429Y-77044286D01*
X162702429Y-76930000D01*
X163102429Y-76615715D02*
X163073857Y-76672857D01*
X163016714Y-76701429D01*
X162502429Y-76701429D01*
X163102429Y-76130000D02*
X162502429Y-76130000D01*
X163073857Y-76130000D02*
X163102429Y-76187143D01*
X163102429Y-76301429D01*
X163073857Y-76358571D01*
X163045286Y-76387143D01*
X162988143Y-76415714D01*
X162816714Y-76415714D01*
X162759571Y-76387143D01*
X162731000Y-76358571D01*
X162702429Y-76301429D01*
X162702429Y-76187143D01*
X162731000Y-76130000D01*
X163073857Y-75615714D02*
X163102429Y-75672857D01*
X163102429Y-75787143D01*
X163073857Y-75844286D01*
X163016714Y-75872857D01*
X162788143Y-75872857D01*
X162731000Y-75844286D01*
X162702429Y-75787143D01*
X162702429Y-75672857D01*
X162731000Y-75615714D01*
X162788143Y-75587143D01*
X162845286Y-75587143D01*
X162902429Y-75872857D01*
X162702429Y-75330000D02*
X163102429Y-75330000D01*
X162759571Y-75330000D02*
X162731000Y-75301428D01*
X162702429Y-75244286D01*
X162702429Y-75158571D01*
X162731000Y-75101428D01*
X162788143Y-75072857D01*
X163102429Y-75072857D01*
X159922810Y-78586669D02*
X159960905Y-78472383D01*
X159960905Y-78281907D01*
X159922810Y-78205717D01*
X159884714Y-78167621D01*
X159808524Y-78129526D01*
X159732333Y-78129526D01*
X159656143Y-78167621D01*
X159618048Y-78205717D01*
X159579952Y-78281907D01*
X159541857Y-78434288D01*
X159503762Y-78510479D01*
X159465667Y-78548574D01*
X159389476Y-78586669D01*
X159313286Y-78586669D01*
X159237095Y-78548574D01*
X159199000Y-78510479D01*
X159160905Y-78434288D01*
X159160905Y-78243812D01*
X159199000Y-78129526D01*
X159960905Y-77786669D02*
X159427571Y-77786669D01*
X159503762Y-77786669D02*
X159465667Y-77748574D01*
X159427571Y-77672383D01*
X159427571Y-77558097D01*
X159465667Y-77481907D01*
X159541857Y-77443812D01*
X159960905Y-77443812D01*
X159541857Y-77443812D02*
X159465667Y-77405716D01*
X159427571Y-77329526D01*
X159427571Y-77215240D01*
X159465667Y-77139050D01*
X159541857Y-77100955D01*
X159960905Y-77100955D01*
X159960905Y-76377145D02*
X159541857Y-76377145D01*
X159465667Y-76415240D01*
X159427571Y-76491430D01*
X159427571Y-76643811D01*
X159465667Y-76720002D01*
X159922810Y-76377145D02*
X159960905Y-76453335D01*
X159960905Y-76643811D01*
X159922810Y-76720002D01*
X159846619Y-76758097D01*
X159770429Y-76758097D01*
X159694238Y-76720002D01*
X159656143Y-76643811D01*
X159656143Y-76453335D01*
X159618048Y-76377145D01*
X159960905Y-75996192D02*
X159427571Y-75996192D01*
X159579952Y-75996192D02*
X159503762Y-75958097D01*
X159465667Y-75920001D01*
X159427571Y-75843811D01*
X159427571Y-75767620D01*
X159427571Y-75615240D02*
X159427571Y-75310478D01*
X159160905Y-75500954D02*
X159846619Y-75500954D01*
X159922810Y-75462859D01*
X159960905Y-75386668D01*
X159960905Y-75310478D01*
X159160905Y-74510477D02*
X159960905Y-74320001D01*
X159389476Y-74167620D01*
X159960905Y-74015239D01*
X159160905Y-73824763D01*
X159960905Y-73177144D02*
X159541857Y-73177144D01*
X159465667Y-73215239D01*
X159427571Y-73291429D01*
X159427571Y-73443810D01*
X159465667Y-73520001D01*
X159922810Y-73177144D02*
X159960905Y-73253334D01*
X159960905Y-73443810D01*
X159922810Y-73520001D01*
X159846619Y-73558096D01*
X159770429Y-73558096D01*
X159694238Y-73520001D01*
X159656143Y-73443810D01*
X159656143Y-73253334D01*
X159618048Y-73177144D01*
X159427571Y-72910477D02*
X159427571Y-72605715D01*
X159160905Y-72796191D02*
X159846619Y-72796191D01*
X159922810Y-72758096D01*
X159960905Y-72681905D01*
X159960905Y-72605715D01*
X159922810Y-71996191D02*
X159960905Y-72072381D01*
X159960905Y-72224762D01*
X159922810Y-72300953D01*
X159884714Y-72339048D01*
X159808524Y-72377143D01*
X159579952Y-72377143D01*
X159503762Y-72339048D01*
X159465667Y-72300953D01*
X159427571Y-72224762D01*
X159427571Y-72072381D01*
X159465667Y-71996191D01*
X159960905Y-71653334D02*
X159160905Y-71653334D01*
X159960905Y-71310477D02*
X159541857Y-71310477D01*
X159465667Y-71348572D01*
X159427571Y-71424762D01*
X159427571Y-71539048D01*
X159465667Y-71615239D01*
X159503762Y-71653334D01*
X160510905Y-73634286D02*
X161310905Y-73367619D01*
X160510905Y-73100952D01*
X161310905Y-72415238D02*
X161310905Y-72872381D01*
X161310905Y-72643810D02*
X160510905Y-72643810D01*
X160625190Y-72720000D01*
X160701381Y-72796191D01*
X160739476Y-72872381D01*
X161234714Y-72072381D02*
X161272810Y-72034286D01*
X161310905Y-72072381D01*
X161272810Y-72110476D01*
X161234714Y-72072381D01*
X161310905Y-72072381D01*
X160510905Y-71348572D02*
X160510905Y-71500953D01*
X160549000Y-71577143D01*
X160587095Y-71615238D01*
X160701381Y-71691429D01*
X160853762Y-71729524D01*
X161158524Y-71729524D01*
X161234714Y-71691429D01*
X161272810Y-71653334D01*
X161310905Y-71577143D01*
X161310905Y-71424762D01*
X161272810Y-71348572D01*
X161234714Y-71310476D01*
X161158524Y-71272381D01*
X160968048Y-71272381D01*
X160891857Y-71310476D01*
X160853762Y-71348572D01*
X160815667Y-71424762D01*
X160815667Y-71577143D01*
X160853762Y-71653334D01*
X160891857Y-71691429D01*
X160968048Y-71729524D01*
X133550000Y-78072000D02*
X158550000Y-78072000D01*
X133550000Y-65572000D02*
X133550000Y-78072000D01*
X158550000Y-65572000D02*
X158550000Y-78072000D01*
X138800000Y-72322000D02*
X138800000Y-65572000D01*
X138800000Y-65572000D02*
X137550000Y-67072000D01*
X140050000Y-67072000D02*
X138800000Y-65572000D01*
X154800000Y-67072000D02*
X153550000Y-65572000D01*
X153550000Y-65572000D02*
X152300000Y-67072000D01*
X153550000Y-72322000D02*
X153550000Y-65572000D01*
X146050000Y-57072000D02*
X146050000Y-61072000D01*
X144050000Y-59072000D02*
X148050000Y-59072000D01*
X133550000Y-60822000D02*
X133550000Y-65572000D01*
X133550000Y-60822000D02*
X142300000Y-55572000D01*
X158550000Y-60822000D02*
X158550000Y-65572000D01*
X149800000Y-55572000D02*
X158550000Y-60822000D01*
X146050000Y-55572000D02*
X142300000Y-55572000D01*
X146050000Y-55572000D02*
X149800000Y-55572000D01*
D12*
X133724000Y-77216000D02*
X133724000Y-72016000D01*
X133724000Y-72016000D02*
X128404000Y-72016000D01*
X128404000Y-72016000D02*
X128404000Y-79876000D01*
X128404000Y-79876000D02*
X131064000Y-79876000D01*
X131064000Y-79876000D02*
X131064000Y-77216000D01*
X131064000Y-77216000D02*
X133724000Y-77216000D01*
X133724000Y-78486000D02*
X133724000Y-79876000D01*
X133724000Y-79876000D02*
X132334000Y-79876000D01*
X159934000Y-51424000D02*
X159934000Y-53224000D01*
X163154000Y-53224000D02*
X163154000Y-50774000D01*
X157234000Y-54444000D02*
X158234000Y-54444000D01*
X158234000Y-52744000D02*
X157234000Y-52744000D01*
X157234000Y-51650000D02*
X158234000Y-51650000D01*
X158234000Y-49950000D02*
X157234000Y-49950000D01*
X142914000Y-51697000D02*
X142914000Y-52697000D01*
X144614000Y-52697000D02*
X144614000Y-51697000D01*
X145200000Y-51697000D02*
X145200000Y-52697000D01*
X146900000Y-52697000D02*
X146900000Y-51697000D01*
X147486000Y-51697000D02*
X147486000Y-52697000D01*
X149186000Y-52697000D02*
X149186000Y-51697000D01*
X132676000Y-52824000D02*
X132676000Y-51824000D01*
X130976000Y-51824000D02*
X130976000Y-52824000D01*
X140216000Y-51396000D02*
X141216000Y-51396000D01*
X141216000Y-49696000D02*
X140216000Y-49696000D01*
X140216000Y-53682000D02*
X141216000Y-53682000D01*
X141216000Y-51982000D02*
X140216000Y-51982000D01*
M02*
