M48
;DRILL file {KiCad 4.0.5} date 08/11/17 18:39:33
;FORMAT={-:-/ absolute / metric / decimal}
FMAT,2
METRIC,TZ
T1C0.300
T2C0.850
T3C1.000
%
G90
G05
M71
T1
X129.54Y-64.77
X129.54Y-71.374
X129.794Y-57.658
X130.556Y-50.546
X130.556Y-52.324
X131.064Y-62.484
X131.064Y-71.882
X132.08Y-62.738
X132.588Y-57.912
X133.096Y-53.34
X133.35Y-64.262
X134.112Y-72.136
X134.112Y-75.438
X134.366Y-62.23
X135.636Y-61.214
X135.636Y-75.946
X135.89Y-52.578
X136.144Y-54.864
X136.271Y-58.268
X136.652Y-68.072
X137.668Y-75.93
X137.922Y-66.802
X138.176Y-78.994
X138.684Y-50.292
X138.684Y-52.832
X138.938Y-58.928
X139.065Y-60.452
X139.446Y-66.802
X139.954Y-65.024
X140.208Y-63.5
X140.462Y-67.31
X140.97Y-70.612
X141.224Y-66.548
X141.224Y-76.2
X141.732Y-64.262
X141.732Y-71.374
X141.986Y-55.118
X141.986Y-68.072
X142.494Y-74.422
X142.748Y-68.834
X143.002Y-58.166
X143.002Y-71.882
X143.51Y-57.404
X143.51Y-69.596
X143.51Y-75.184
X143.764Y-54.483
X144.526Y-59.944
X144.78Y-65.278
X145.796Y-58.166
X146.558Y-54.483
X146.558Y-57.15
X146.558Y-58.928
X147.574Y-54.483
X149.098Y-54.61
X149.352Y-50.8
X149.86Y-60.198
X149.86Y-61.722
X150.622Y-55.626
X150.622Y-56.896
X150.622Y-59.436
X150.876Y-50.292
X151.384Y-60.96
X152.908Y-60.706
X153.416Y-51.308
X153.67Y-66.04
X153.924Y-57.912
X154.686Y-54.864
X154.686Y-56.388
X154.686Y-58.674
X157.734Y-70.104
X157.988Y-57.15
X158.496Y-54.864
X159.766Y-52.324
X159.766Y-54.864
X161.544Y-52.324
T2
X159.766Y-57.317
X159.766Y-62.317
T3
X129.794Y-73.406
X129.794Y-75.946
X129.794Y-78.486
X132.334Y-73.406
X132.334Y-75.946
X132.334Y-78.486
X162.466Y-56.317
X162.466Y-63.317
T0
M30
