G04 #@! TF.FileFunction,Legend,Bot*
%FSLAX46Y46*%
G04 Gerber Fmt 4.6, Leading zero omitted, Abs format (unit mm)*
G04 Created by KiCad (PCBNEW 4.0.5) date 08/11/17 18:39:36*
%MOMM*%
%LPD*%
G01*
G04 APERTURE LIST*
%ADD10C,0.100000*%
%ADD11C,0.150000*%
%ADD12C,0.120000*%
G04 APERTURE END LIST*
D10*
D11*
X135541000Y-72485000D02*
X135541000Y-71910000D01*
X145891000Y-72485000D02*
X145891000Y-71810000D01*
X145891000Y-62135000D02*
X145891000Y-62810000D01*
X135541000Y-62135000D02*
X135541000Y-62810000D01*
X135541000Y-72485000D02*
X136216000Y-72485000D01*
X135541000Y-62135000D02*
X136216000Y-62135000D01*
X145891000Y-62135000D02*
X145216000Y-62135000D01*
X145891000Y-72485000D02*
X145216000Y-72485000D01*
X135541000Y-71910000D02*
X134266000Y-71910000D01*
D10*
X141300000Y-53499000D02*
X141300000Y-49999000D01*
X141300000Y-49999000D02*
X142050000Y-49999000D01*
X142050000Y-49999000D02*
X142050000Y-49749000D01*
X142050000Y-49749000D02*
X150050000Y-49749000D01*
X150050000Y-49749000D02*
X150050000Y-49999000D01*
X150050000Y-49999000D02*
X150800000Y-49999000D01*
X150800000Y-49999000D02*
X150800000Y-53499000D01*
X150800000Y-53499000D02*
X150800000Y-54249000D01*
X150800000Y-54249000D02*
X149550000Y-54249000D01*
X149550000Y-54249000D02*
X149550000Y-54999000D01*
X149550000Y-54999000D02*
X142550000Y-54999000D01*
X142550000Y-54999000D02*
X142550000Y-54249000D01*
X142550000Y-54249000D02*
X141300000Y-54249000D01*
X141300000Y-54249000D02*
X141300000Y-53499000D01*
D12*
X148026000Y-70614000D02*
X148956000Y-70614000D01*
X151186000Y-70614000D02*
X150256000Y-70614000D01*
X151186000Y-70614000D02*
X151186000Y-73774000D01*
X148026000Y-70614000D02*
X148026000Y-72074000D01*
X152516000Y-50079000D02*
X154316000Y-50079000D01*
X154316000Y-53299000D02*
X151866000Y-53299000D01*
D11*
X133901000Y-49749000D02*
X133901000Y-49799000D01*
X129751000Y-49749000D02*
X129751000Y-49894000D01*
X129751000Y-54899000D02*
X129751000Y-54754000D01*
X133901000Y-54899000D02*
X133901000Y-54754000D01*
X133901000Y-49749000D02*
X129751000Y-49749000D01*
X133901000Y-54899000D02*
X129751000Y-54899000D01*
X133901000Y-49799000D02*
X135301000Y-49799000D01*
D12*
X136539000Y-52237000D02*
X136539000Y-50887000D01*
X138289000Y-52237000D02*
X138289000Y-50887000D01*
D10*
X163916000Y-55117000D02*
X158466000Y-55117000D01*
X158466000Y-55117000D02*
X158466000Y-64517000D01*
X158466000Y-64517000D02*
X163916000Y-64517000D01*
X163916000Y-55117000D02*
X163916000Y-64517000D01*
X139170000Y-60612000D02*
G75*
G03X139170000Y-60612000I-200000J0D01*
G01*
X140670000Y-55412000D02*
X139470000Y-55412000D01*
X139470000Y-55412000D02*
X139470000Y-55612000D01*
X141270000Y-55412000D02*
X142470000Y-55412000D01*
X142470000Y-55412000D02*
X142470000Y-55612000D01*
X141270000Y-60412000D02*
X142470000Y-60412000D01*
X142470000Y-60412000D02*
X142470000Y-60212000D01*
X139470000Y-60212000D02*
X139470000Y-60412000D01*
X139470000Y-60412000D02*
X140670000Y-60412000D01*
D11*
X163988000Y-70374000D02*
X163488000Y-70374000D01*
X163488000Y-70374000D02*
X163488000Y-72374000D01*
X163488000Y-72374000D02*
X163988000Y-72374000D01*
X151988000Y-68374000D02*
X153488000Y-68374000D01*
X153488000Y-68374000D02*
X153488000Y-74374000D01*
X153488000Y-74374000D02*
X151988000Y-74374000D01*
X153988000Y-66874000D02*
G75*
G03X153988000Y-66874000I-500000J0D01*
G01*
X151988000Y-77374000D02*
X154988000Y-77374000D01*
X151988000Y-65374000D02*
X154988000Y-65374000D01*
X163988000Y-65374000D02*
X160988000Y-65374000D01*
X163988000Y-77374000D02*
X160988000Y-77374000D01*
X151988000Y-65374000D02*
X151988000Y-77374000D01*
X163988000Y-77374000D02*
X163988000Y-65374000D01*
D12*
X138010000Y-58047000D02*
X138010000Y-59047000D01*
X136310000Y-59047000D02*
X136310000Y-58047000D01*
X137834000Y-76446000D02*
X137834000Y-75446000D01*
X139534000Y-75446000D02*
X139534000Y-76446000D01*
X143930000Y-76446000D02*
X143930000Y-75446000D01*
X145630000Y-75446000D02*
X145630000Y-76446000D01*
X135802000Y-76446000D02*
X135802000Y-75446000D01*
X137502000Y-75446000D02*
X137502000Y-76446000D01*
X131580000Y-65698000D02*
X132580000Y-65698000D01*
X132580000Y-67398000D02*
X131580000Y-67398000D01*
X149852000Y-64858000D02*
X148852000Y-64858000D01*
X148852000Y-63158000D02*
X149852000Y-63158000D01*
X131580000Y-67730000D02*
X132580000Y-67730000D01*
X132580000Y-69430000D02*
X131580000Y-69430000D01*
X158076000Y-51189000D02*
X158076000Y-52189000D01*
X156376000Y-52189000D02*
X156376000Y-51189000D01*
X135644000Y-55030000D02*
X136644000Y-55030000D01*
X136644000Y-56730000D02*
X135644000Y-56730000D01*
X140804000Y-51824000D02*
X140804000Y-52824000D01*
X139104000Y-52824000D02*
X139104000Y-51824000D01*
X135728000Y-78114000D02*
X134528000Y-78114000D01*
X134528000Y-79874000D02*
X135728000Y-79874000D01*
X138776000Y-78114000D02*
X137576000Y-78114000D01*
X137576000Y-79874000D02*
X138776000Y-79874000D01*
X157064000Y-57667000D02*
X155864000Y-57667000D01*
X155864000Y-59427000D02*
X157064000Y-59427000D01*
X157064000Y-59699000D02*
X155864000Y-59699000D01*
X155864000Y-61459000D02*
X157064000Y-61459000D01*
X151012000Y-55026000D02*
X151012000Y-56226000D01*
X152772000Y-56226000D02*
X152772000Y-55026000D01*
X152772000Y-59528000D02*
X152772000Y-58328000D01*
X151012000Y-58328000D02*
X151012000Y-59528000D01*
X134121000Y-57947000D02*
X134121000Y-59147000D01*
X135881000Y-59147000D02*
X135881000Y-57947000D01*
X154086000Y-55744000D02*
X155286000Y-55744000D01*
X155286000Y-53984000D02*
X154086000Y-53984000D01*
X131988000Y-56760000D02*
X133188000Y-56760000D01*
X133188000Y-55000000D02*
X131988000Y-55000000D01*
X131988000Y-58792000D02*
X133188000Y-58792000D01*
X133188000Y-57032000D02*
X131988000Y-57032000D01*
X145660000Y-58639000D02*
X145660000Y-57439000D01*
X143900000Y-57439000D02*
X143900000Y-58639000D01*
X147456000Y-60868000D02*
X147456000Y-62068000D01*
X149216000Y-62068000D02*
X149216000Y-60868000D01*
X149216000Y-76546000D02*
X149216000Y-75346000D01*
X147456000Y-75346000D02*
X147456000Y-76546000D01*
X151502000Y-76546000D02*
X151502000Y-75346000D01*
X149742000Y-75346000D02*
X149742000Y-76546000D01*
X149470000Y-67402000D02*
X149470000Y-66202000D01*
X147710000Y-66202000D02*
X147710000Y-67402000D01*
X146126000Y-78194000D02*
X146126000Y-79794000D01*
X146126000Y-79794000D02*
X143526000Y-79794000D01*
X146126000Y-78194000D02*
X143526000Y-78194000D01*
X141824000Y-78114000D02*
X140624000Y-78114000D01*
X140624000Y-79874000D02*
X141824000Y-79874000D01*
M02*
